<svg width="720" height="1024" viewBox="0 0 720 1024" fill="none" xmlns="http://www.w3.org/2000/svg">
<rect width="720" height="1024" fill="url(#paint0_linear_2564_6244)"/>
<rect width="720" height="1024" fill="url(#paint1_linear_2564_6244)"/>
<mask id="mask0_2564_6244" style="mask-type:alpha" maskUnits="userSpaceOnUse" x="2" y="747" width="235" height="273">
<path d="M82.4958 857.662C6.59504 972.141 39.51 1041.75 156.181 1013.01C272.852 984.274 260.381 954.914 128.444 947.494C-3.49285 940.073 -36.4971 870.461 54.7588 792.143C146.015 713.825 158.397 743.182 82.4958 857.662Z" stroke="#404040" stroke-width="0.840798" stroke-miterlimit="10"/>
<path d="M84.4607 861.64C23.53 961.792 53.635 1025.27 151.664 1003.36C249.692 981.452 238.413 954.702 126.387 943.625C14.3612 932.548 -15.7438 869.068 59.1843 801.903C134.112 734.737 145.394 761.376 84.4607 861.64Z" stroke="#404040" stroke-width="0.840798" stroke-miterlimit="10"/>
<path d="M86.5162 865.509C38.9288 952.171 66.1346 1009.52 147.237 993.604C228.339 977.688 218.165 953.434 124.334 939.533C30.5032 925.633 3.38668 868.288 63.6135 811.439C123.84 754.589 134.103 778.847 86.5162 865.509Z" stroke="#404040" stroke-width="0.840798" stroke-miterlimit="10"/>
<path d="M88.4795 869.486C52.6983 943.497 77.0023 994.825 142.807 983.956C208.609 973.2 199.448 951.549 122.365 935.668C45.281 919.786 20.9745 868.57 68.0373 821.198C115.1 773.825 124.35 795.479 88.4795 869.486Z" stroke="#404040" stroke-width="0.840798" stroke-miterlimit="10"/>
<path d="M90.5421 873.355C64.9405 935.551 86.3453 980.746 138.387 974.197C190.429 967.648 182.368 948.716 120.405 931.69C58.4424 914.664 36.9484 869.465 72.5604 830.848C108.172 792.231 116.141 811.271 90.5421 873.355Z" stroke="#404040" stroke-width="0.840798" stroke-miterlimit="10"/>
<path d="M92.5074 877.333C75.4615 928.438 93.967 967.502 133.87 964.547C173.773 961.592 166.817 945.156 118.262 927.707C69.704 910.369 51.1984 871.305 76.8995 840.492C102.601 809.68 109.553 826.227 92.5074 877.333Z" stroke="#404040" stroke-width="0.840798" stroke-miterlimit="10"/>
<path d="M94.5567 881.313C84.4374 922.276 100.133 955.211 129.526 954.902C158.919 954.593 152.977 940.761 116.289 923.84C79.6016 906.919 63.9952 873.987 81.3201 850.25C98.6449 826.514 104.587 840.346 94.5567 881.313Z" stroke="#404040" stroke-width="0.840798" stroke-miterlimit="10"/>
<path d="M96.5243 885.179C91.7968 916.727 104.591 943.642 125.009 945.252C145.427 946.861 140.59 935.525 114.322 919.974C87.9643 904.421 75.2597 877.509 85.8374 859.901C96.415 842.293 101.252 853.63 96.5243 885.179Z" stroke="#404040" stroke-width="0.840798" stroke-miterlimit="10"/>
<path d="M98.5803 889.16C97.7073 912.133 107.513 932.913 120.582 935.605C133.654 938.185 129.92 929.456 112.269 915.994C94.618 902.533 84.8127 881.753 90.2671 869.549C95.7216 857.345 99.4532 866.186 98.5803 889.16Z" stroke="#404040" stroke-width="0.840798" stroke-miterlimit="10"/>
<path d="M100.55 893.025C101.816 908.257 108.809 923.019 116.069 925.842C123.33 928.665 120.788 922.546 110.217 912.013C99.6456 901.48 92.7395 886.832 94.6973 879.196C96.6551 871.559 99.284 877.793 100.55 893.025Z" stroke="#404040" stroke-width="0.840798" stroke-miterlimit="10"/>
<path d="M102.604 897.006C104.472 905.335 108.565 913.965 111.731 916.198C114.896 918.431 113.37 914.804 108.339 908.151C103.307 901.497 99.2138 892.867 99.2122 888.958C99.2106 885.05 100.737 888.677 102.604 897.006Z" stroke="#404040" stroke-width="0.840798" stroke-miterlimit="10"/>
</mask>
<g mask="url(#mask0_2564_6244)">
<g opacity="0.5">
<rect width="351.505" height="439.469" transform="matrix(-1 0 0 1 220.895 677.024)" fill="url(#paint2_linear_2564_6244)"/>
<rect width="351.505" height="439.469" transform="matrix(-1 0 0 1 220.895 677.024)" fill="url(#paint3_linear_2564_6244)"/>
</g>
</g>
<mask id="mask1_2564_6244" style="mask-type:alpha" maskUnits="userSpaceOnUse" x="381" y="5" width="336" height="391">
<path d="M601.935 238.043C710.555 74.2142 663.451 -25.401 496.487 15.725C329.522 56.851 347.369 98.8675 536.18 109.487C724.991 120.106 772.223 219.726 641.629 331.805C511.035 443.883 493.316 401.871 601.935 238.043Z" stroke="#404040" stroke-width="1.20324" stroke-miterlimit="10"/>
<path d="M599.123 232.35C686.319 89.0249 643.237 -1.81956 502.951 29.5352C362.665 60.8901 378.807 99.1712 539.124 115.023C699.441 130.876 742.523 221.72 635.296 317.839C528.068 413.957 511.923 375.836 599.123 232.35Z" stroke="#404040" stroke-width="1.20324" stroke-miterlimit="10"/>
<path d="M596.183 226.814C664.284 102.794 625.351 20.7251 509.288 43.501C393.225 66.277 407.785 100.987 542.063 120.88C676.342 140.772 715.147 222.837 628.959 304.192C542.77 385.547 528.082 350.833 596.183 226.814Z" stroke="#404040" stroke-width="1.20324" stroke-miterlimit="10"/>
<path d="M593.369 221.122C644.574 115.208 609.794 41.7539 515.623 57.3074C421.456 72.7013 434.565 103.685 544.877 126.412C655.189 149.14 689.973 222.434 622.623 290.227C555.273 358.02 542.036 327.032 593.369 221.122Z" stroke="#404040" stroke-width="1.20324" stroke-miterlimit="10"/>
<path d="M590.425 215.585C627.062 126.578 596.43 61.8999 521.955 71.2727C447.48 80.6455 459.015 107.738 547.688 132.104C636.362 156.469 667.121 221.152 616.158 276.416C565.194 331.68 553.791 304.432 590.425 215.585Z" stroke="#404040" stroke-width="1.20324" stroke-miterlimit="10"/>
<path d="M587.611 209.893C612.005 136.758 585.522 80.8544 528.418 85.0835C471.315 89.3126 481.268 112.834 550.755 137.805C620.244 162.616 646.727 218.519 609.947 262.615C573.167 306.71 563.217 283.029 587.611 209.893Z" stroke="#404040" stroke-width="1.20324" stroke-miterlimit="10"/>
<path d="M584.672 204.197C599.153 145.576 576.692 98.4433 534.628 98.8852C492.565 99.3272 501.068 119.122 553.571 143.337C606.074 167.553 628.407 214.681 603.614 248.649C578.821 282.617 570.318 262.822 584.672 204.197Z" stroke="#404040" stroke-width="1.20324" stroke-miterlimit="10"/>
<path d="M581.858 198.664C588.623 153.516 570.314 114.999 541.094 112.696C511.875 110.392 518.797 126.616 556.388 148.869C594.108 171.128 612.289 209.64 597.151 234.838C582.014 260.036 575.092 243.813 581.858 198.664Z" stroke="#404040" stroke-width="1.20324" stroke-miterlimit="10"/>
<path d="M578.918 192.968C580.168 160.091 566.136 130.354 547.432 126.502C528.725 122.809 534.069 135.302 559.329 154.566C584.589 173.83 598.621 203.567 590.815 221.032C583.009 238.497 577.669 225.845 578.918 192.968Z" stroke="#404040" stroke-width="1.20324" stroke-miterlimit="10"/>
<path d="M576.101 187.436C574.289 165.638 564.282 144.512 553.891 140.472C543.501 136.432 547.139 145.189 562.267 160.262C577.395 175.336 587.278 196.298 584.477 207.226C581.675 218.155 577.913 209.233 576.101 187.436Z" stroke="#404040" stroke-width="1.20324" stroke-miterlimit="10"/>
<path d="M573.158 181.739C570.486 169.82 564.627 157.469 560.097 154.273C555.567 151.078 557.752 156.269 564.952 165.79C572.152 175.312 578.01 187.663 578.012 193.256C578.015 198.849 575.83 193.659 573.158 181.739Z" stroke="#404040" stroke-width="1.20324" stroke-miterlimit="10"/>
</mask>
<g mask="url(#mask1_2564_6244)">
<g opacity="0.3">
<rect width="503.029" height="628.912" transform="matrix(1 0 0 -1 403.879 496.547)" fill="url(#paint4_linear_2564_6244)"/>
<rect width="503.029" height="628.912" transform="matrix(1 0 0 -1 403.879 496.547)" fill="url(#paint5_linear_2564_6244)"/>
</g>
</g>
<path fill-rule="evenodd" clip-rule="evenodd" d="M355.149 563.206C355.149 567.611 351.475 571.269 347.027 571.232C342.867 571.2 339.063 567.735 339.115 563.21C339.167 558.574 342.561 555.23 347.148 555.234C351.606 555.239 354.879 558.214 355.149 563.206Z" fill="white"/>
<path fill-rule="evenodd" clip-rule="evenodd" d="M388.775 563.208C388.775 567.611 385.099 571.269 380.654 571.232C376.493 571.2 372.69 567.733 372.742 563.21C372.796 558.571 376.19 555.23 380.775 555.234C385.231 555.239 388.506 558.212 388.775 563.208Z" fill="white"/>
<path fill-rule="evenodd" clip-rule="evenodd" d="M334.972 563.251C335.267 567.458 331.36 571.327 326.993 571.238C322.94 571.157 319.014 567.598 319.083 563.101C319.149 558.785 322.828 555.17 327.079 555.198C331.502 555.228 335.213 558.757 334.972 563.249V563.251Z" fill="white"/>
<path d="M334.14 456.247L329.162 458.803C328.025 456.909 324.896 455.111 321.293 455.111C316.648 455.111 314.42 457.051 314.42 459.513C314.42 462.401 317.833 463.205 321.815 463.679C328.736 464.531 335.183 466.329 335.183 474.235C335.183 481.619 328.641 484.791 321.246 484.791C314.467 484.791 309.253 482.708 306.788 476.649L312.002 473.951C313.472 477.596 317.311 479.205 321.341 479.205C325.275 479.205 328.973 477.832 328.973 474.235C328.973 471.11 325.702 469.832 321.293 469.359C314.515 468.554 308.257 466.756 308.257 459.324C308.257 452.507 314.989 449.714 321.104 449.667C326.271 449.667 331.627 451.134 334.14 456.247Z" fill="#E5C480"/>
<path d="M366.381 483.939L363.584 477.69H346.234L343.39 483.939H336.611L351.496 450.803H358.322L373.207 483.939H366.381ZM361.072 471.868L354.909 457.762L348.747 471.868H361.072Z" fill="#E5C480"/>
<path d="M381.504 469.596V478.116H391.08C393.64 478.116 397.29 477.264 397.29 474.14C397.29 471.158 393.64 469.596 391.08 469.596H381.504ZM381.504 456.483V464.105H391.08C395.014 464.105 396.294 462.448 396.294 460.554C396.294 459.04 395.062 456.483 391.08 456.483H381.504ZM391.08 450.803C397.622 450.803 402.504 453.738 402.504 460.412C402.504 462.969 401.272 465.43 398.19 466.803C402.078 467.986 403.5 472.105 403.5 474.187C403.5 481.572 397.953 483.939 391.08 483.939C385.818 483.939 380.604 483.939 375.342 483.939V450.803C380.556 450.803 385.818 450.803 391.08 450.803Z" fill="#E5C480"/>
<path d="M432.635 477.785V483.939H407.795C407.795 472.909 407.795 461.832 407.795 450.803H432.635V456.862H414.005V464.483H431.972V470.306H414.005V477.785H432.635Z" fill="#E5C480"/>
<path d="M462.217 477.785V483.939H437.377C437.377 472.909 437.377 461.832 437.377 450.803H462.217V456.862H443.587V464.483H461.553V470.306H443.587V477.785H462.217Z" fill="#E5C480"/>
<path d="M467.053 450.803H473.31V478.164H490.376V483.939H467.053V450.803Z" fill="#E5C480"/>
<path fill-rule="evenodd" clip-rule="evenodd" d="M215 521.335V521.193C215 515.052 215.002 508.911 215 502.77C215 502.652 215.039 502.577 215.131 502.501C215.593 502.127 216.047 501.744 216.504 501.367C216.965 500.986 217.431 500.61 217.894 500.229C218.252 499.934 218.605 499.637 218.96 499.343C219.316 499.048 219.676 498.757 220.033 498.463C220.29 498.252 220.542 498.039 220.796 497.828C221.048 497.619 221.3 497.413 221.55 497.206C221.919 496.903 222.285 496.597 222.654 496.294C222.897 496.091 223.143 495.891 223.386 495.691C223.656 495.467 223.927 495.244 224.196 495.022C224.44 494.82 224.683 494.62 224.929 494.417C225.185 494.207 225.44 493.998 225.696 493.789C225.97 493.563 226.246 493.339 226.519 493.111C226.773 492.9 227.028 492.687 227.282 492.477C227.526 492.274 227.771 492.074 228.015 491.872C228.284 491.648 228.555 491.424 228.825 491.203C229.081 490.992 229.338 490.783 229.592 490.575C229.945 490.284 230.296 489.991 230.65 489.699C231.023 489.391 231.393 489.086 231.766 488.78C232.022 488.569 232.281 488.363 232.531 488.145C233.052 487.696 233.6 487.285 234.242 487.022C234.466 486.932 234.694 486.852 234.925 486.779C235.112 486.719 235.306 486.671 235.498 486.628C235.625 486.6 235.757 486.575 235.886 486.57C236.293 486.553 236.7 486.488 237.112 486.557C237.312 486.592 237.519 486.592 237.72 486.622C237.849 486.639 237.976 486.678 238.101 486.714C238.347 486.788 238.594 486.854 238.836 486.945C239.293 487.117 239.723 487.343 240.109 487.64C240.506 487.945 240.889 488.27 241.277 488.586C241.635 488.879 241.995 489.172 242.35 489.466C242.714 489.768 243.076 490.071 243.44 490.37C243.789 490.658 244.141 490.945 244.49 491.233C244.854 491.532 245.218 491.835 245.582 492.134C245.942 492.431 246.304 492.726 246.666 493.025C246.91 493.225 247.153 493.428 247.397 493.63C247.666 493.854 247.937 494.075 248.209 494.297C248.457 494.501 248.704 494.708 248.952 494.912C249.219 495.132 249.484 495.351 249.752 495.573C250.004 495.779 250.254 495.988 250.506 496.195C250.76 496.406 251.016 496.616 251.271 496.827C251.534 497.045 251.794 497.262 252.059 497.479C252.314 497.69 252.57 497.901 252.826 498.11C253.085 498.323 253.344 498.538 253.604 498.751C253.848 498.951 254.093 499.153 254.337 499.353C254.606 499.577 254.878 499.801 255.147 500.022C255.511 500.324 255.878 500.623 256.242 500.922C256.479 501.116 256.716 501.311 256.953 501.507C257.22 501.727 257.485 501.948 257.75 502.17C257.912 502.303 258.071 502.437 258.235 502.568C258.293 502.615 258.321 502.671 258.312 502.744C258.308 502.779 258.312 502.813 258.312 502.845V521.352C258.312 521.352 258.293 521.363 258.282 521.369C258.194 521.298 258.103 521.229 258.017 521.156C257.438 520.666 256.858 520.175 256.278 519.682C255.862 519.329 255.451 518.972 255.035 518.619C254.63 518.277 254.223 517.937 253.818 517.595C253.406 517.247 252.997 516.894 252.583 516.543C252.29 516.293 251.993 516.05 251.7 515.801C251.406 515.551 251.116 515.301 250.823 515.052C250.53 514.802 250.234 514.555 249.941 514.307C249.663 514.071 249.383 513.836 249.105 513.6C248.793 513.335 248.483 513.07 248.17 512.806C247.873 512.554 247.578 512.3 247.28 512.048C247.007 511.816 246.731 511.583 246.455 511.351C246.14 511.084 245.824 510.815 245.509 510.548C245.237 510.318 244.968 510.088 244.697 509.858C244.369 509.58 244.044 509.303 243.716 509.027C243.43 508.786 243.143 508.543 242.856 508.302C242.555 508.048 242.255 507.792 241.954 507.536C241.667 507.293 241.383 507.052 241.096 506.809C240.788 506.546 240.48 506.286 240.172 506.023C239.879 505.776 239.583 505.529 239.288 505.279C238.997 505.034 238.706 504.791 238.422 504.541C238.129 504.285 237.795 504.111 237.422 503.994C237.168 503.915 236.909 503.885 236.649 503.88C236.127 503.876 235.64 504.005 235.199 504.289C235.056 504.382 234.927 504.492 234.796 504.601C234.386 504.945 233.981 505.296 233.574 505.643C233.162 505.991 232.746 506.338 232.333 506.686C232.042 506.931 231.757 507.181 231.467 507.426C231.165 507.682 230.863 507.934 230.562 508.188C230.279 508.427 229.999 508.668 229.717 508.909C229.413 509.167 229.107 509.423 228.801 509.681C228.525 509.914 228.252 510.148 227.978 510.381C227.663 510.647 227.347 510.914 227.03 511.183C226.752 511.42 226.474 511.657 226.196 511.893C225.884 512.158 225.571 512.42 225.259 512.685C224.972 512.928 224.688 513.171 224.401 513.412C224.097 513.671 223.791 513.927 223.485 514.185C223.199 514.428 222.914 514.671 222.628 514.912C222.32 515.172 222.012 515.435 221.703 515.695C221.425 515.932 221.145 516.169 220.867 516.403C220.555 516.668 220.242 516.932 219.932 517.197C219.643 517.442 219.355 517.69 219.066 517.935C218.773 518.185 218.478 518.432 218.185 518.68C217.892 518.929 217.599 519.177 217.306 519.426C217.004 519.682 216.704 519.936 216.403 520.19C216.114 520.435 215.823 520.681 215.534 520.926C215.368 521.066 215.203 521.208 215.037 521.348C215.026 521.343 215.013 521.339 215.002 521.333L215 521.335Z" fill="#E5C480"/>
<path d="M334.885 563.178C334.885 558.765 331.302 555.183 326.885 555.183C322.468 555.183 318.884 558.765 318.884 563.178C318.884 567.591 322.468 571.174 326.885 571.174C331.302 571.174 334.885 567.593 334.885 563.178ZM354.823 563.178C354.823 558.765 351.24 555.183 346.823 555.183C342.405 555.183 338.822 558.765 338.822 563.178C338.822 567.591 342.405 571.174 346.823 571.174C351.24 571.174 354.823 567.593 354.823 563.178ZM388.435 563.178C388.435 558.765 384.85 555.183 380.434 555.183C376.019 555.183 372.434 558.765 372.434 563.178C372.434 567.591 376.019 571.174 380.434 571.174C384.85 571.174 388.435 567.593 388.435 563.178ZM505 489.705H490.066V529.298H469.408V493.058H454.939V529.298H434.234V492.991H419.868V529.298H388.295V489.705H373.746V529.298H344.118V489.705H329.542V529.298H300.192V449H285.667V557.812C285.667 559.824 284.034 561.457 282.021 561.457H247.386C245.373 561.457 243.74 559.824 243.74 557.812V517.554H229.413V562.335C229.413 569.879 235.539 576 243.085 576H286.402C293.948 576 300.073 569.879 300.073 562.335V543.82H505V489.705Z" fill="white"/>
<path fill-rule="evenodd" clip-rule="evenodd" d="M355.149 563.206C355.149 567.611 351.475 571.269 347.027 571.232C342.867 571.2 339.063 567.735 339.115 563.21C339.167 558.574 342.561 555.23 347.148 555.234C351.606 555.239 354.879 558.214 355.149 563.206Z" />
<path fill-rule="evenodd" clip-rule="evenodd" d="M388.775 563.208C388.775 567.611 385.099 571.269 380.654 571.232C376.493 571.2 372.69 567.733 372.742 563.21C372.796 558.571 376.19 555.23 380.775 555.234C385.231 555.239 388.506 558.212 388.775 563.208Z" />
<path fill-rule="evenodd" clip-rule="evenodd" d="M334.972 563.251C335.267 567.458 331.36 571.327 326.993 571.238C322.94 571.157 319.014 567.598 319.083 563.101C319.149 558.785 322.828 555.17 327.079 555.198C331.502 555.228 335.213 558.757 334.972 563.249V563.251Z" />
<path d="M334.14 456.247L329.162 458.803C328.025 456.909 324.896 455.111 321.293 455.111C316.648 455.111 314.42 457.051 314.42 459.513C314.42 462.401 317.833 463.205 321.815 463.679C328.736 464.531 335.183 466.329 335.183 474.235C335.183 481.619 328.641 484.791 321.246 484.791C314.467 484.791 309.253 482.708 306.788 476.649L312.002 473.951C313.472 477.596 317.311 479.205 321.341 479.205C325.275 479.205 328.973 477.832 328.973 474.235C328.973 471.11 325.702 469.832 321.293 469.359C314.515 468.554 308.257 466.756 308.257 459.324C308.257 452.507 314.989 449.714 321.104 449.667C326.271 449.667 331.627 451.134 334.14 456.247Z" />
<path d="M366.381 483.939L363.584 477.69H346.234L343.39 483.939H336.611L351.496 450.803H358.322L373.207 483.939H366.381ZM361.072 471.868L354.909 457.762L348.747 471.868H361.072Z" />
<path d="M381.504 469.596V478.116H391.08C393.64 478.116 397.29 477.264 397.29 474.14C397.29 471.158 393.64 469.596 391.08 469.596H381.504ZM381.504 456.483V464.105H391.08C395.014 464.105 396.294 462.448 396.294 460.554C396.294 459.04 395.062 456.483 391.08 456.483H381.504ZM391.08 450.803C397.622 450.803 402.504 453.738 402.504 460.412C402.504 462.969 401.272 465.43 398.19 466.803C402.078 467.986 403.5 472.105 403.5 474.187C403.5 481.572 397.953 483.939 391.08 483.939C385.818 483.939 380.604 483.939 375.342 483.939V450.803C380.556 450.803 385.818 450.803 391.08 450.803Z" />
<path d="M432.635 477.785V483.939H407.795C407.795 472.909 407.795 461.832 407.795 450.803H432.635V456.862H414.005V464.483H431.972V470.306H414.005V477.785H432.635Z" />
<path d="M462.217 477.785V483.939H437.377C437.377 472.909 437.377 461.832 437.377 450.803H462.217V456.862H443.587V464.483H461.553V470.306H443.587V477.785H462.217Z" />
<path d="M467.053 450.803H473.31V478.164H490.376V483.939H467.053V450.803Z" />
<path fill-rule="evenodd" clip-rule="evenodd" d="M215 521.335V521.193C215 515.052 215.002 508.911 215 502.77C215 502.652 215.039 502.577 215.131 502.501C215.593 502.127 216.047 501.744 216.504 501.367C216.965 500.986 217.431 500.61 217.894 500.229C218.252 499.934 218.605 499.637 218.96 499.343C219.316 499.048 219.676 498.757 220.033 498.463C220.29 498.252 220.542 498.039 220.796 497.828C221.048 497.619 221.3 497.413 221.55 497.206C221.919 496.903 222.285 496.597 222.654 496.294C222.897 496.091 223.143 495.891 223.386 495.691C223.656 495.467 223.927 495.244 224.196 495.022C224.44 494.82 224.683 494.62 224.929 494.417C225.185 494.207 225.44 493.998 225.696 493.789C225.97 493.563 226.246 493.339 226.519 493.111C226.773 492.9 227.028 492.687 227.282 492.477C227.526 492.274 227.771 492.074 228.015 491.872C228.284 491.648 228.555 491.424 228.825 491.203C229.081 490.992 229.338 490.783 229.592 490.575C229.945 490.284 230.296 489.991 230.65 489.699C231.023 489.391 231.393 489.086 231.766 488.78C232.022 488.569 232.281 488.363 232.531 488.145C233.052 487.696 233.6 487.285 234.242 487.022C234.466 486.932 234.694 486.852 234.925 486.779C235.112 486.719 235.306 486.671 235.498 486.628C235.625 486.6 235.757 486.575 235.886 486.57C236.293 486.553 236.7 486.488 237.112 486.557C237.312 486.592 237.519 486.592 237.72 486.622C237.849 486.639 237.976 486.678 238.101 486.714C238.347 486.788 238.594 486.854 238.836 486.945C239.293 487.117 239.723 487.343 240.109 487.64C240.506 487.945 240.889 488.27 241.277 488.586C241.635 488.879 241.995 489.172 242.35 489.466C242.714 489.768 243.076 490.071 243.44 490.37C243.789 490.658 244.141 490.945 244.49 491.233C244.854 491.532 245.218 491.835 245.582 492.134C245.942 492.431 246.304 492.726 246.666 493.025C246.91 493.225 247.153 493.428 247.397 493.63C247.666 493.854 247.937 494.075 248.209 494.297C248.457 494.501 248.704 494.708 248.952 494.912C249.219 495.132 249.484 495.351 249.752 495.573C250.004 495.779 250.254 495.988 250.506 496.195C250.76 496.406 251.016 496.616 251.271 496.827C251.534 497.045 251.794 497.262 252.059 497.479C252.314 497.69 252.57 497.901 252.826 498.11C253.085 498.323 253.344 498.538 253.604 498.751C253.848 498.951 254.093 499.153 254.337 499.353C254.606 499.577 254.878 499.801 255.147 500.022C255.511 500.324 255.878 500.623 256.242 500.922C256.479 501.116 256.716 501.311 256.953 501.507C257.22 501.727 257.485 501.948 257.75 502.17C257.912 502.303 258.071 502.437 258.235 502.568C258.293 502.615 258.321 502.671 258.312 502.744C258.308 502.779 258.312 502.813 258.312 502.845V521.352C258.312 521.352 258.293 521.363 258.282 521.369C258.194 521.298 258.103 521.229 258.017 521.156C257.438 520.666 256.858 520.175 256.278 519.682C255.862 519.329 255.451 518.972 255.035 518.619C254.63 518.277 254.223 517.937 253.818 517.595C253.406 517.247 252.997 516.894 252.583 516.543C252.29 516.293 251.993 516.05 251.7 515.801C251.406 515.551 251.116 515.301 250.823 515.052C250.53 514.802 250.234 514.555 249.941 514.307C249.663 514.071 249.383 513.836 249.105 513.6C248.793 513.335 248.483 513.07 248.17 512.806C247.873 512.554 247.578 512.3 247.28 512.048C247.007 511.816 246.731 511.583 246.455 511.351C246.14 511.084 245.824 510.815 245.509 510.548C245.237 510.318 244.968 510.088 244.697 509.858C244.369 509.58 244.044 509.303 243.716 509.027C243.43 508.786 243.143 508.543 242.856 508.302C242.555 508.048 242.255 507.792 241.954 507.536C241.667 507.293 241.383 507.052 241.096 506.809C240.788 506.546 240.48 506.286 240.172 506.023C239.879 505.776 239.583 505.529 239.288 505.279C238.997 505.034 238.706 504.791 238.422 504.541C238.129 504.285 237.795 504.111 237.422 503.994C237.168 503.915 236.909 503.885 236.649 503.88C236.127 503.876 235.64 504.005 235.199 504.289C235.056 504.382 234.927 504.492 234.796 504.601C234.386 504.945 233.981 505.296 233.574 505.643C233.162 505.991 232.746 506.338 232.333 506.686C232.042 506.931 231.757 507.181 231.467 507.426C231.165 507.682 230.863 507.934 230.562 508.188C230.279 508.427 229.999 508.668 229.717 508.909C229.413 509.167 229.107 509.423 228.801 509.681C228.525 509.914 228.252 510.148 227.978 510.381C227.663 510.647 227.347 510.914 227.03 511.183C226.752 511.42 226.474 511.657 226.196 511.893C225.884 512.158 225.571 512.42 225.259 512.685C224.972 512.928 224.688 513.171 224.401 513.412C224.097 513.671 223.791 513.927 223.485 514.185C223.199 514.428 222.914 514.671 222.628 514.912C222.32 515.172 222.012 515.435 221.703 515.695C221.425 515.932 221.145 516.169 220.867 516.403C220.555 516.668 220.242 516.932 219.932 517.197C219.643 517.442 219.355 517.69 219.066 517.935C218.773 518.185 218.478 518.432 218.185 518.68C217.892 518.929 217.599 519.177 217.306 519.426C217.004 519.682 216.704 519.936 216.403 520.19C216.114 520.435 215.823 520.681 215.534 520.926C215.368 521.066 215.203 521.208 215.037 521.348C215.026 521.343 215.013 521.339 215.002 521.333L215 521.335Z" />
<path d="M334.885 563.178C334.885 558.765 331.302 555.183 326.885 555.183C322.468 555.183 318.884 558.765 318.884 563.178C318.884 567.591 322.468 571.174 326.885 571.174C331.302 571.174 334.885 567.593 334.885 563.178ZM354.823 563.178C354.823 558.765 351.24 555.183 346.823 555.183C342.405 555.183 338.822 558.765 338.822 563.178C338.822 567.591 342.405 571.174 346.823 571.174C351.24 571.174 354.823 567.593 354.823 563.178ZM388.435 563.178C388.435 558.765 384.85 555.183 380.434 555.183C376.019 555.183 372.434 558.765 372.434 563.178C372.434 567.591 376.019 571.174 380.434 571.174C384.85 571.174 388.435 567.593 388.435 563.178ZM505 489.705H490.066V529.298H469.408V493.058H454.939V529.298H434.234V492.991H419.868V529.298H388.295V489.705H373.746V529.298H344.118V489.705H329.542V529.298H300.192V449H285.667V557.812C285.667 559.824 284.034 561.457 282.021 561.457H247.386C245.373 561.457 243.74 559.824 243.74 557.812V517.554H229.413V562.335C229.413 569.879 235.539 576 243.085 576H286.402C293.948 576 300.073 569.879 300.073 562.335V543.82H505V489.705Z" />
<defs>
<linearGradient id="paint0_linear_2564_6244" x1="917.538" y1="1229.04" x2="1055.94" y2="610.735" gradientUnits="userSpaceOnUse">
<stop stop-color="#FFB24A"/>
<stop offset="1" stop-color="#EE8F0F"/>
</linearGradient>
<linearGradient id="paint1_linear_2564_6244" x1="720" y1="7.54146e-05" x2="-184.619" y2="236.8" gradientUnits="userSpaceOnUse">
<stop stop-color="#9461F6"/>
<stop offset="0.503013" stop-color="#7C15FE"/>
<stop offset="1" stop-color="#7743DB"/>
</linearGradient>
<linearGradient id="paint2_linear_2564_6244" x1="131.479" y1="128.625" x2="213.316" y2="293.757" gradientUnits="userSpaceOnUse">
<stop stop-color="#EE9011"/>
<stop offset="1" stop-color="#822700"/>
</linearGradient>
<linearGradient id="paint3_linear_2564_6244" x1="138.079" y1="161.746" x2="209.572" y2="294.697" gradientUnits="userSpaceOnUse">
<stop stop-color="#A681ED"/>
<stop offset="1" stop-color="#7B19FB"/>
</linearGradient>
<linearGradient id="paint4_linear_2564_6244" x1="188.155" y1="184.072" x2="305.27" y2="420.388" gradientUnits="userSpaceOnUse">
<stop stop-color="#EE9011"/>
<stop offset="1" stop-color="#822700"/>
</linearGradient>
<linearGradient id="paint5_linear_2564_6244" x1="197.6" y1="231.47" x2="299.912" y2="421.732" gradientUnits="userSpaceOnUse">
<stop stop-color="#A681ED"/>
<stop offset="1" stop-color="#7B19FB"/>
</linearGradient>
</defs>
</svg>
